<svg width="960" height="666.25" xmlns="http://www.w3.org/2000/svg">
   <g transform="translate(259.3974609375,20) scale(0.75)"><g class="output"><g class="clusters"></g><g class="edgePaths"><g class="edgePath" style="opacity: 1;"><path class="path" d="M283.9453125,28.669793603035586L116.48046875,75.5L133.31366502192984,114" marker-end="url(about:blank#arrowhead100)" style="fill: none;"></path><defs><marker id="arrowhead100" viewBox="0 0 10 10" refX="9" refY="5" markerUnits="strokeWidth" markerWidth="8" markerHeight="6" orient="auto"><path d="M 0 0 L 10 5 L 0 10 z" style="stroke-width: 1; stroke-dasharray: 1, 0;"></path></marker></defs></g><g class="edgePath" style="opacity: 1;"><path class="path" d="M130.71463815789474,151L108.47265625,189.5L108.47265625,246.5L108.47265625,303.5L115.22704221491227,342" marker-end="url(about:blank#arrowhead101)" style="fill: none;"></path><defs><marker id="arrowhead101" viewBox="0 0 10 10" refX="9" refY="5" markerUnits="strokeWidth" markerWidth="8" markerHeight="6" orient="auto"><path d="M 0 0 L 10 5 L 0 10 z" style="stroke-width: 1; stroke-dasharray: 1, 0;"></path></marker></defs></g><g class="edgePath" style="opacity: 1;"><path class="path" d="M169.68102384868422,151L228.53125,189.5L250.90515350877192,228" marker-end="url(about:blank#arrowhead102)" style="fill: none;"></path><defs><marker id="arrowhead102" viewBox="0 0 10 10" refX="9" refY="5" markerUnits="strokeWidth" markerWidth="8" markerHeight="6" orient="auto"><path d="M 0 0 L 10 5 L 0 10 z" style="stroke-width: 1; stroke-dasharray: 1, 0;"></path></marker></defs></g><g class="edgePath" style="opacity: 1;"><path class="path" d="M172.65234375,117.68277822908205L261.6171875,75.5L301.262266995614,37" marker-end="url(about:blank#arrowhead103)" style="fill: none;"></path><defs><marker id="arrowhead103" viewBox="0 0 10 10" refX="9" refY="5" markerUnits="strokeWidth" markerWidth="8" markerHeight="6" orient="auto"><path d="M 0 0 L 10 5 L 0 10 z" style="stroke-width: 1; stroke-dasharray: 1, 0;"></path></marker></defs></g><g class="edgePath" style="opacity: 1;"><path class="path" d="M110.83912417763158,379L94.953125,417.5L94.953125,474.5L94.953125,531.5L101.70751096491227,570" marker-end="url(about:blank#arrowhead104)" style="fill: none;"></path><defs><marker id="arrowhead104" viewBox="0 0 10 10" refX="9" refY="5" markerUnits="strokeWidth" markerWidth="8" markerHeight="6" orient="auto"><path d="M 0 0 L 10 5 L 0 10 z" style="stroke-width: 1; stroke-dasharray: 1, 0;"></path></marker></defs></g><g class="edgePath" style="opacity: 1;"><path class="path" d="M139.42334841008773,379L183.0234375,417.5L220.88493695175438,456" marker-end="url(about:blank#arrowhead105)" style="fill: none;"></path><defs><marker id="arrowhead105" viewBox="0 0 10 10" refX="9" refY="5" markerUnits="strokeWidth" markerWidth="8" markerHeight="6" orient="auto"><path d="M 0 0 L 10 5 L 0 10 z" style="stroke-width: 1; stroke-dasharray: 1, 0;"></path></marker></defs></g><g class="edgePath" style="opacity: 1;"><path class="path" d="M243.46306195175438,265L205.6015625,303.5L146.75133634868422,342" marker-end="url(about:blank#arrowhead106)" style="fill: none;"></path><defs><marker id="arrowhead106" viewBox="0 0 10 10" refX="9" refY="5" markerUnits="strokeWidth" markerWidth="8" markerHeight="6" orient="auto"><path d="M 0 0 L 10 5 L 0 10 z" style="stroke-width: 1; stroke-dasharray: 1, 0;"></path></marker></defs></g><g class="edgePath" style="opacity: 1;"><path class="path" d="M272.5214501096491,265L295.1328125,303.5L295.1328125,360.5L295.1328125,417.5L257.2713130482456,456" marker-end="url(about:blank#arrowhead107)" style="fill: none;"></path><defs><marker id="arrowhead107" viewBox="0 0 10 10" refX="9" refY="5" markerUnits="strokeWidth" markerWidth="8" markerHeight="6" orient="auto"><path d="M 0 0 L 10 5 L 0 10 z" style="stroke-width: 1; stroke-dasharray: 1, 0;"></path></marker></defs></g><g class="edgePath" style="opacity: 1;"><path class="path" d="M280.6938048245614,228L320.3125,189.5L320.3125,132.5L320.3125,75.5L320.3125,37" marker-end="url(about:blank#arrowhead108)" style="fill: none;"></path><defs><marker id="arrowhead108" viewBox="0 0 10 10" refX="9" refY="5" markerUnits="strokeWidth" markerWidth="8" markerHeight="6" orient="auto"><path d="M 0 0 L 10 5 L 0 10 z" style="stroke-width: 1; stroke-dasharray: 1, 0;"></path></marker></defs></g><g class="edgePath" style="opacity: 1;"><path class="path" d="M216.4970189144737,493L169.50390625,531.5L125.90381716008773,570" marker-end="url(about:blank#arrowhead109)" style="fill: none;"></path><defs><marker id="arrowhead109" viewBox="0 0 10 10" refX="9" refY="5" markerUnits="strokeWidth" markerWidth="8" markerHeight="6" orient="auto"><path d="M 0 0 L 10 5 L 0 10 z" style="stroke-width: 1; stroke-dasharray: 1, 0;"></path></marker></defs></g><g class="edgePath" style="opacity: 1;"><path class="path" d="M260.1416529605263,493L303.9765625,531.5L303.9765625,570" marker-end="url(about:blank#arrowhead110)" style="fill: none;"></path><defs><marker id="arrowhead110" viewBox="0 0 10 10" refX="9" refY="5" markerUnits="strokeWidth" markerWidth="8" markerHeight="6" orient="auto"><path d="M 0 0 L 10 5 L 0 10 z" style="stroke-width: 1; stroke-dasharray: 1, 0;"></path></marker></defs></g><g class="edgePath" style="opacity: 1;"><path class="path" d="M83.98087993421052,607L40.3359375,645.5L40.3359375,684" marker-end="url(about:blank#arrowhead111)" style="fill: none;"></path><defs><marker id="arrowhead111" viewBox="0 0 10 10" refX="9" refY="5" markerUnits="strokeWidth" markerWidth="8" markerHeight="6" orient="auto"><path d="M 0 0 L 10 5 L 0 10 z" style="stroke-width: 1; stroke-dasharray: 1, 0;"></path></marker></defs></g><g class="edgePath" style="opacity: 1;"><path class="path" d="M125.92537006578948,607L169.5703125,645.5L169.5703125,684" marker-end="url(about:blank#arrowhead112)" style="fill: none;"></path><defs><marker id="arrowhead112" viewBox="0 0 10 10" refX="9" refY="5" markerUnits="strokeWidth" markerWidth="8" markerHeight="6" orient="auto"><path d="M 0 0 L 10 5 L 0 10 z" style="stroke-width: 1; stroke-dasharray: 1, 0;"></path></marker></defs></g><g class="edgePath" style="opacity: 1;"><path class="path" d="M303.9765625,607L303.9765625,645.5L338.2550712719298,684" marker-end="url(about:blank#arrowhead113)" style="fill: none;"></path><defs><marker id="arrowhead113" viewBox="0 0 10 10" refX="9" refY="5" markerUnits="strokeWidth" markerWidth="8" markerHeight="6" orient="auto"><path d="M 0 0 L 10 5 L 0 10 z" style="stroke-width: 1; stroke-dasharray: 1, 0;"></path></marker></defs></g><g class="edgePath" style="opacity: 1;"><path class="path" d="M40.3359375,721L40.3359375,759.5L127.9453125,798.1409140369967" marker-end="url(about:blank#arrowhead114)" style="fill: none;"></path><defs><marker id="arrowhead114" viewBox="0 0 10 10" refX="9" refY="5" markerUnits="strokeWidth" markerWidth="8" markerHeight="6" orient="auto"><path d="M 0 0 L 10 5 L 0 10 z" style="stroke-width: 1; stroke-dasharray: 1, 0;"></path></marker></defs></g><g class="edgePath" style="opacity: 1;"><path class="path" d="M169.5703125,721L169.5703125,759.5L169.5703125,798" marker-end="url(about:blank#arrowhead115)" style="fill: none;"></path><defs><marker id="arrowhead115" viewBox="0 0 10 10" refX="9" refY="5" markerUnits="strokeWidth" markerWidth="8" markerHeight="6" orient="auto"><path d="M 0 0 L 10 5 L 0 10 z" style="stroke-width: 1; stroke-dasharray: 1, 0;"></path></marker></defs></g><g class="edgePath" style="opacity: 1;"><path class="path" d="M368.3277138157895,684L396.6328125,645.5L396.6328125,588.5L396.6328125,531.5L396.6328125,474.5L396.6328125,417.5L396.6328125,360.5L396.6328125,303.5L396.6328125,246.5L396.6328125,189.5L396.6328125,132.5L396.6328125,75.5L345.08312774122805,37" marker-end="url(about:blank#arrowhead116)" style="fill: none;"></path><defs><marker id="arrowhead116" viewBox="0 0 10 10" refX="9" refY="5" markerUnits="strokeWidth" markerWidth="8" markerHeight="6" orient="auto"><path d="M 0 0 L 10 5 L 0 10 z" style="stroke-width: 1; stroke-dasharray: 1, 0;"></path></marker></defs></g><g class="edgePath" style="opacity: 1;"><path class="path" d="M211.1953125,809.3622731973301L501.9765625,759.5L501.9765625,702.5L501.9765625,645.5L501.9765625,588.5L501.9765625,531.5L501.9765625,474.5L501.9765625,417.5L501.9765625,360.5L501.9765625,303.5L501.9765625,246.5L501.9765625,189.5L501.9765625,132.5L501.9765625,75.5L356.6796875,29.910785705070314" marker-end="url(about:blank#arrowhead117)" style="fill: none;"></path><defs><marker id="arrowhead117" viewBox="0 0 10 10" refX="9" refY="5" markerUnits="strokeWidth" markerWidth="8" markerHeight="6" orient="auto"><path d="M 0 0 L 10 5 L 0 10 z" style="stroke-width: 1; stroke-dasharray: 1, 0;"></path></marker></defs></g></g><g class="edgeLabels"><g class="edgeLabel" style="opacity: 1;" transform="translate(136.40234375,75.5)"><g transform="translate(-14.921875,-8.5)" class="label"><text><tspan xml:space="preserve" dy="1em" x="1">open</tspan></text></g></g><g class="edgeLabel" style="opacity: 1;" transform="translate(136.94921875,246.5)"><g transform="translate(-23.4765625,-8.5)" class="label"><text><tspan xml:space="preserve" dy="1em" x="1">rcv SYN</tspan></text></g></g><g class="edgeLabel" style="opacity: 1;" transform="translate(248.0625,189.5)"><g transform="translate(-14.53125,-8.5)" class="label"><text><tspan xml:space="preserve" dy="1em" x="1">send</tspan></text></g></g><g class="edgeLabel" style="opacity: 1;" transform="translate(282.1875,75.5)"><g transform="translate(-15.5703125,-8.5)" class="label"><text><tspan xml:space="preserve" dy="1em" x="1">close</tspan></text></g></g><g class="edgeLabel" style="opacity: 1;" transform="translate(115.5234375,474.5)"><g transform="translate(-15.5703125,-8.5)" class="label"><text><tspan xml:space="preserve" dy="1em" x="1">close</tspan></text></g></g><g class="edgeLabel" style="opacity: 1;" transform="translate(234.078125,417.5)"><g transform="translate(-46.0546875,-8.5)" class="label"><text><tspan xml:space="preserve" dy="1em" x="1">rcv ACK of SYN</tspan></text></g></g><g class="edgeLabel" style="opacity: 1;" transform="translate(234.078125,303.5)"><g transform="translate(-23.4765625,-8.5)" class="label"><text><tspan xml:space="preserve" dy="1em" x="1">rcv SYN</tspan></text></g></g><g class="edgeLabel" style="opacity: 1;" transform="translate(340.8828125,360.5)"><g transform="translate(-40.75,-8.5)" class="label"><text><tspan xml:space="preserve" dy="1em" x="1">rcv SYN, ACK</tspan></text></g></g><g class="edgeLabel" style="opacity: 1;" transform="translate(340.8828125,132.5)"><g transform="translate(-15.5703125,-8.5)" class="label"><text><tspan xml:space="preserve" dy="1em" x="1">close</tspan></text></g></g><g class="edgeLabel" style="opacity: 1;" transform="translate(190.07421875,531.5)"><g transform="translate(-15.5703125,-8.5)" class="label"><text><tspan xml:space="preserve" dy="1em" x="1">close</tspan></text></g></g><g class="edgeLabel" style="opacity: 1;" transform="translate(329.0625,531.5)"><g transform="translate(-20.0859375,-8.5)" class="label"><text><tspan xml:space="preserve" dy="1em" x="1">rcv FIN</tspan></text></g></g><g class="edgeLabel" style="opacity: 1;" transform="translate(88.0078125,645.5)"><g transform="translate(-42.671875,-8.5)" class="label"><text><tspan xml:space="preserve" dy="1em" x="1">rcv ACK of FIN</tspan></text></g></g><g class="edgeLabel" style="opacity: 1;" transform="translate(194.65625,645.5)"><g transform="translate(-20.0859375,-8.5)" class="label"><text><tspan xml:space="preserve" dy="1em" x="1">rcv FIN</tspan></text></g></g><g class="edgeLabel" style="opacity: 1;" transform="translate(324.546875,645.5)"><g transform="translate(-15.5703125,-8.5)" class="label"><text><tspan xml:space="preserve" dy="1em" x="1">close</tspan></text></g></g><g class="edgeLabel" style="opacity: 1;" transform="translate(65.421875,759.5)"><g transform="translate(-20.0859375,-8.5)" class="label"><text><tspan xml:space="preserve" dy="1em" x="1">rcv FIN</tspan></text></g></g><g class="edgeLabel" style="opacity: 1;" transform="translate(217.2421875,759.5)"><g transform="translate(-42.671875,-8.5)" class="label"><text><tspan xml:space="preserve" dy="1em" x="1">rcv ACK of FIN</tspan></text></g></g><g class="edgeLabel" style="opacity: 1;" transform="translate(444.3046875,360.5)"><g transform="translate(-42.671875,-8.5)" class="label"><text><tspan xml:space="preserve" dy="1em" x="1">rcv ACK of FIN</tspan></text></g></g><g class="edgeLabel" style="opacity: 1;" transform="translate(550.125,417.5)"><g transform="translate(-43.1484375,-8.5)" class="label"><text><tspan xml:space="preserve" dy="1em" x="1">timeout=2MSL</tspan></text></g></g></g><g class="nodes"><g class="node" transform="translate(320.3125,18.5)" style="opacity: 1;"><rect rx="5" ry="5" x="-36.3671875" y="-18.5" width="72.734375" height="37" class="label-container" style="fill: #f77"></rect><g class="label" transform="translate(0,0)"><g transform="translate(-26.3671875,-8.5)"><text><tspan xml:space="preserve" dy="1em" x="1">CLOSED</tspan></text></g></g></g><g class="node" transform="translate(141.40234375,132.5)" style="opacity: 1;"><rect rx="5" ry="5" x="-31.25" y="-18.5" width="62.5" height="37" class="label-container"></rect><g class="label" transform="translate(0,0)"><g transform="translate(-21.25,-8.5)"><text><tspan xml:space="preserve" dy="1em" x="1">LISTEN</tspan></text></g></g></g><g class="node" transform="translate(118.47265625,360.5)" style="opacity: 1;"><rect rx="5" ry="5" x="-42.7734375" y="-18.5" width="85.546875" height="37" class="label-container"></rect><g class="label" transform="translate(0,0)"><g transform="translate(-32.7734375,-8.5)"><text><tspan xml:space="preserve" dy="1em" x="1">SYN RCVD</tspan></text></g></g></g><g class="node" transform="translate(261.65625,246.5)" style="opacity: 1;"><rect rx="5" ry="5" x="-41.6796875" y="-18.5" width="83.359375" height="37" class="label-container"></rect><g class="label" transform="translate(0,0)"><g transform="translate(-31.6796875,-8.5)"><text><tspan xml:space="preserve" dy="1em" x="1">SYN SENT</tspan></text></g></g></g><g class="node" transform="translate(239.078125,474.5)" style="opacity: 1;"><rect rx="5" ry="5" x="-29.828125" y="-18.5" width="59.65625" height="37" class="label-container" style="fill: #7f7"></rect><g class="label" transform="translate(0,0)"><g transform="translate(-19.828125,-8.5)"><text><tspan xml:space="preserve" dy="1em" x="1">ESTAB</tspan></text></g></g></g><g class="node" transform="translate(104.953125,588.5)" style="opacity: 1;"><rect rx="5" ry="5" x="-40.3359375" y="-18.5" width="80.671875" height="37" class="label-container"></rect><g class="label" transform="translate(0,0)"><g transform="translate(-30.3359375,-8.5)"><text><tspan xml:space="preserve" dy="1em" x="1">FINWAIT-1</tspan></text></g></g></g><g class="node" transform="translate(303.9765625,588.5)" style="opacity: 1;"><rect rx="5" ry="5" x="-48.8125" y="-18.5" width="97.625" height="37" class="label-container"></rect><g class="label" transform="translate(0,0)"><g transform="translate(-38.8125,-8.5)"><text><tspan xml:space="preserve" dy="1em" x="1">CLOSE WAIT</tspan></text></g></g></g><g class="node" transform="translate(40.3359375,702.5)" style="opacity: 1;"><rect rx="5" ry="5" x="-40.3359375" y="-18.5" width="80.671875" height="37" class="label-container"></rect><g class="label" transform="translate(0,0)"><g transform="translate(-30.3359375,-8.5)"><text><tspan xml:space="preserve" dy="1em" x="1">FINWAIT-2</tspan></text></g></g></g><g class="node" transform="translate(169.5703125,702.5)" style="opacity: 1;"><rect rx="5" ry="5" x="-38.8984375" y="-18.5" width="77.796875" height="37" class="label-container"></rect><g class="label" transform="translate(0,0)"><g transform="translate(-28.8984375,-8.5)"><text><tspan xml:space="preserve" dy="1em" x="1">CLOSING</tspan></text></g></g></g><g class="node" transform="translate(354.7265625,702.5)" style="opacity: 1;"><rect rx="5" ry="5" x="-40.765625" y="-18.5" width="81.53125" height="37" class="label-container"></rect><g class="label" transform="translate(0,0)"><g transform="translate(-30.765625,-8.5)"><text><tspan xml:space="preserve" dy="1em" x="1">LAST-ACK</tspan></text></g></g></g><g class="node" transform="translate(169.5703125,816.5)" style="opacity: 1;"><rect rx="5" ry="5" x="-41.625" y="-18.5" width="83.25" height="37" class="label-container"></rect><g class="label" transform="translate(0,0)"><g transform="translate(-31.625,-8.5)"><text><tspan xml:space="preserve" dy="1em" x="1">TIME WAIT</tspan></text></g></g></g></g></g></g>
<style>
    body {
      font: 300 14px 'Helvetica Neue', Helvetica;
    }

    .node rect {
      stroke: #333;
      fill: #fff;
    }

    .edgePath path {
      stroke: #333;
      fill: #333;
      stroke-width: 1.5px;
    }</style><body><parsererror style="display: block; white-space: pre; border: 2px solid #c77; padding: 0 1em 0 1em; margin: 1em; background-color: #fdd; color: black"><h3>This page contains the following errors:</h3><div style="font-family:monospace;font-size:12px">error on line 1 at column 1: Document is empty
</div><h3>Below is a rendering of the page up to the first error.</h3></parsererror></body></svg>